<svg width="1440" height="627" viewBox="0 0 1440 627" fill="none" xmlns="http://www.w3.org/2000/svg">
<path fill-rule="evenodd" clip-rule="evenodd" d="M-314.92 0L-236.899 72.4825C-158.877 144.965 -2.83469 289.93 153.572 352.454C309.979 414.977 466.75 395.059 623.521 375.141C780.292 355.222 937.063 335.304 1093.74 335.996C1250.42 336.688 1407.01 357.991 1485.31 368.642L1563.6 379.294L1562.51 626.619L1484.17 626.272C1405.83 625.926 1249.15 625.234 1092.47 624.542C935.789 623.85 779.109 623.158 622.429 622.465C465.748 621.773 309.068 621.081 152.388 620.389C-4.29155 619.697 -160.972 619.004 -239.312 618.658L-317.652 618.312L-314.92 0Z" fill="#F3E396"/>
</svg>
