<svg width="1440" height="675" viewBox="0 0 1440 675" fill="none" xmlns="http://www.w3.org/2000/svg">
<path fill-rule="evenodd" clip-rule="evenodd" d="M-254.785 0L-170.147 0.373918C-89.6763 93.9649 67.6874 241.173 229.1 321.802C390.513 402.431 592.703 345.434 754.587 319.51C916.47 293.587 1212.82 263.695 1374.58 264.41C1536.35 265.124 1603.77 404.911 1684.59 418.588L1684.35 474.744L1683.46 674.53L1602.58 674.173C1521.7 673.816 1359.93 673.101 1198.17 672.386C1036.4 671.672 874.634 670.957 712.868 670.242C551.102 669.528 389.336 668.813 227.57 668.098C65.8044 667.384 -95.9614 666.669 -176.844 666.312L-257.727 665.954L-254.785 0Z" fill="#FFA663"/>
</svg>
