<svg width="1440" height="1008" viewBox="0 0 1440 1008" fill="none" xmlns="http://www.w3.org/2000/svg">
<path fill-rule="evenodd" clip-rule="evenodd" d="M-176.221 532.021L-76.819 496.456C41.9735 528.988 264.948 567.121 475.332 556.162C685.717 545.204 908.097 419.046 1091.28 332.065C1274.46 245.083 1614.38 98.3524 1804.36 30.3767C1994.35 -37.599 2109.86 33.3312 2208.25 8.84621L2222.59 48.9123L2273.59 191.455L2178.6 225.443C2083.6 259.431 1893.62 327.406 1703.64 395.382C1513.65 463.358 1323.67 531.334 1133.69 599.309C943.702 667.285 753.719 735.261 563.735 803.236C373.751 871.212 183.768 939.188 88.7759 973.176L-6.21595 1007.16L-176.221 532.021Z" fill="#F3E396"/>
</svg>
