<svg width="1443" height="354" viewBox="0 0 1443 354" fill="none" xmlns="http://www.w3.org/2000/svg">
<path fill-rule="evenodd" clip-rule="evenodd" d="M-15.2 93.7485L65.6248 107.779C146.449 122.807 308.099 150.867 469.782 123.003C631.467 94.1402 793.186 7.35537 954.857 0.462741C1116.53 -6.42989 1278.15 65.571 1439.8 94.6298C1601.45 123.689 1763.12 108.807 1843.96 101.865L1924.8 94.9236L1924.64 353.575L1843.81 353.526C1762.98 353.477 1601.31 353.379 1439.64 353.281C1277.98 353.183 1116.31 353.085 954.643 352.987C792.976 352.889 631.31 352.791 469.643 352.693C307.977 352.595 146.31 352.497 65.4766 352.448L-15.3567 352.399L-15.2 93.7485Z" fill="white"/>
</svg>
