<svg width="1440" height="982" viewBox="0 0 1440 982" fill="none" xmlns="http://www.w3.org/2000/svg">
<path fill-rule="evenodd" clip-rule="evenodd" d="M-172.108 25.7509L-78.5536 12.1293C14.4916 0.231688 201.091 -25.2875 351.568 71.5948C501.537 170.201 614.875 392.933 768.405 479.471C922.444 564.286 1116.17 514.631 1284.96 549.451C1453.24 585.995 1596.09 708.736 1667.26 770.969L1738.43 833.202L1694.67 981.463L1612.31 957.157C1529.95 932.852 1365.23 884.24 1200.5 835.629C1035.78 787.018 871.059 738.406 706.336 689.795C541.614 641.184 376.891 592.572 212.168 543.961C47.4457 495.35 -117.277 446.739 -199.638 422.433L-282 398.127L-172.108 25.7509Z" fill="#FFA663"/>
</svg>
