<svg width="1424" height="302" viewBox="0 0 1424 302" fill="none" xmlns="http://www.w3.org/2000/svg">
<path fill-rule="evenodd" clip-rule="evenodd" d="M-1027.4 214.516L-925.286 228.577C-823.17 242.639 -618.937 271.763 -414.661 228.887C-210.385 186.01 -6.06559 71.1342 198.189 63.258C402.443 56.3817 606.632 157.505 810.878 164.629C1015.12 171.753 1219.43 85.8766 1321.58 42.9385L1423.73 0.000338401L1423.54 302L1321.42 301.938C1219.29 301.877 1015.04 301.753 810.795 301.629C606.545 301.505 402.295 301.382 198.045 301.258C-6.20491 301.134 -210.455 301.01 -414.705 300.887C-618.955 300.763 -823.205 300.639 -925.33 300.577L-1027.45 300.516L-1027.4 214.516Z" fill="white"/>
</svg>
