<svg width="1424" height="302" viewBox="0 0 1424 302" fill="none" xmlns="http://www.w3.org/2000/svg">
<path fill-rule="evenodd" clip-rule="evenodd" d="M-1060.39 214.495L-956.899 228.558C-853.408 242.62 -646.426 271.746 -439.4 228.871C-232.373 185.997 -25.3039 71.1221 181.701 63.2475C388.705 56.3729 595.644 157.498 802.64 164.624C1009.64 171.749 1216.69 85.8744 1320.21 42.9371L1423.74 -0.000179391L1423.56 302L1320.06 301.937C1216.56 301.874 1009.56 301.749 802.557 301.624C595.557 301.498 388.557 301.373 181.557 301.247C-25.4432 301.122 -232.443 300.997 -439.443 300.871C-646.443 300.746 -853.443 300.62 -956.943 300.558L-1060.44 300.495L-1060.39 214.495Z" fill="#FFF5C2"/>
</svg>
