<svg width="1440" height="1008" viewBox="0 0 1440 1008" fill="none" xmlns="http://www.w3.org/2000/svg">
<path fill-rule="evenodd" clip-rule="evenodd" d="M-176.219 532.021L-76.817 496.456C41.9755 528.988 264.95 567.121 475.334 556.162C685.719 545.204 908.099 419.046 1091.28 332.065C1274.47 245.083 1614.38 98.3524 1804.36 30.3767C1994.35 -37.599 2109.86 33.3312 2208.25 8.84621L2222.59 48.9123L2273.59 191.455L2178.6 225.443C2083.61 259.431 1893.62 327.406 1703.64 395.382C1513.65 463.358 1323.67 531.334 1133.69 599.309C943.704 667.285 753.72 735.261 563.737 803.236C373.753 871.212 183.77 939.188 88.7778 973.176L-6.21399 1007.16L-176.219 532.021Z" fill="#F3E396"/>
</svg>
