<svg width="1443" height="354" viewBox="0 0 1443 354" fill="none" xmlns="http://www.w3.org/2000/svg">
<path fill-rule="evenodd" clip-rule="evenodd" d="M-15.1922 93.7485L65.6326 107.779C146.457 122.807 308.107 150.867 469.79 123.003C631.474 94.1402 793.194 7.35538 954.864 0.462741C1116.54 -6.42989 1278.16 65.571 1439.81 94.6298C1601.46 123.689 1763.13 108.807 1843.97 101.865L1924.81 94.9236L1924.65 353.575L1843.82 353.526C1762.98 353.477 1601.32 353.379 1439.65 353.281C1277.98 353.183 1116.32 353.085 954.651 352.987C792.984 352.889 631.318 352.791 469.651 352.693C307.984 352.595 146.318 352.497 65.4844 352.448L-15.3489 352.399L-15.1922 93.7485Z" fill="#FFA663"/>
</svg>
