<svg width="1440" height="1475" viewBox="0 0 1440 1475" fill="none" xmlns="http://www.w3.org/2000/svg">
<path fill-rule="evenodd" clip-rule="evenodd" d="M-176.22 821.346L-76.818 785.78C41.9745 818.312 264.949 856.445 475.333 845.487C685.718 834.528 908.098 708.371 1091.28 621.389C1274.47 534.408 1614.38 387.677 1804.36 319.701C1994.35 251.725 2109.86 322.656 2208.25 298.171L2222.59 338.237L2273.59 480.779L2178.6 514.767C2083.6 548.755 1893.62 616.731 1703.64 684.706C1513.65 752.682 1323.67 820.658 1133.69 888.634C943.703 956.609 753.72 1024.58 563.736 1092.56C373.752 1160.54 183.769 1228.51 88.7768 1262.5L-6.21497 1296.49L-176.22 821.346Z" fill="#F3E396"/>
<path fill-rule="evenodd" clip-rule="evenodd" d="M-241.553 838.363L-124.849 874.473C-8.14509 910.583 225.263 982.803 430.443 976.132C635.624 969.462 812.578 883.9 989.532 798.339C1166.49 712.778 1343.44 627.217 1527.45 561.378C1711.46 495.539 1902.53 449.424 1998.06 426.366L2093.6 403.308L2178.28 639.979L2086.27 672.899C1994.27 705.818 1810.25 771.657 1626.24 837.495C1442.23 903.334 1258.22 969.172 1074.21 1035.01C890.202 1100.85 706.191 1166.69 522.181 1232.53C338.17 1298.37 154.16 1364.2 62.1542 1397.12L-29.8511 1430.04L-241.553 838.363Z" fill="#FFA663"/>
<path fill-rule="evenodd" clip-rule="evenodd" d="M-299.392 1021.76L-183.97 1040.06C-68.5488 1058.36 162.295 1094.97 371.532 1071.2C580.769 1047.42 768.401 963.255 956.032 879.092C1143.66 794.928 1331.3 710.765 1524.33 641.698C1717.36 572.632 1915.8 518.661 2015.01 491.676L2114.23 464.691L2179.05 645.848L2082.53 680.382C1986.01 714.915 1792.98 783.982 1599.95 853.049C1406.92 922.115 1213.88 991.182 1020.85 1060.25C827.817 1129.32 634.784 1198.38 441.751 1267.45C248.718 1336.52 55.6852 1405.58 -40.8313 1440.12L-137.348 1474.65L-299.392 1021.76Z" fill="white"/>
</svg>
