<svg width="1440" height="982" viewBox="0 0 1440 982" fill="none" xmlns="http://www.w3.org/2000/svg">
<path fill-rule="evenodd" clip-rule="evenodd" d="M-224.107 25.7509L-130.553 12.1293C-37.5074 0.231688 149.092 -25.2875 299.569 71.5948C449.538 170.201 562.876 392.933 716.406 479.471C870.445 564.286 1064.17 514.631 1232.96 549.451C1401.24 585.995 1544.09 708.736 1615.26 770.969L1686.43 833.202L1642.67 981.463L1560.31 957.157C1477.95 932.852 1313.23 884.24 1148.51 835.629C983.783 787.018 819.06 738.406 654.337 689.795C489.615 641.184 324.892 592.572 160.169 543.961C-4.55337 495.35 -169.276 446.739 -251.637 422.433L-333.999 398.127L-224.107 25.7509Z" fill="#0B5C6A"/>
</svg>
