<svg width="1443" height="354" viewBox="0 0 1443 354" fill="none" xmlns="http://www.w3.org/2000/svg">
<path fill-rule="evenodd" clip-rule="evenodd" d="M-15.1766 93.7485L65.6483 107.779C146.473 122.807 308.122 150.867 469.806 123.003C631.49 94.1402 793.209 7.35538 954.88 0.462741C1116.55 -6.42989 1278.17 65.571 1439.82 94.6298C1601.47 123.689 1763.15 108.807 1843.99 101.865L1924.82 94.9236L1924.67 353.575L1843.83 353.526C1763 353.477 1601.33 353.379 1439.67 353.281C1278 353.183 1116.33 353.085 954.667 352.987C793 352.889 631.333 352.791 469.667 352.693C308 352.595 146.333 352.497 65.5 352.448L-15.3333 352.399L-15.1766 93.7485Z" fill="#0B5C6A"/>
</svg>
