<svg width="1440" height="1027" viewBox="0 0 1440 1027" fill="none" xmlns="http://www.w3.org/2000/svg">
<path fill-rule="evenodd" clip-rule="evenodd" d="M-241.553 435.055L-124.849 471.165C-8.14509 507.275 225.263 579.495 430.443 572.824C635.624 566.153 812.578 480.592 989.532 395.031C1166.49 309.47 1343.44 223.909 1527.45 158.07C1711.46 92.2314 1902.53 46.1156 1998.06 23.0576L2093.6 -0.000406906L2178.28 236.671L2086.27 269.591C1994.27 302.51 1810.25 368.349 1626.24 434.187C1442.23 500.026 1258.22 565.864 1074.21 631.703C890.202 697.541 706.191 763.38 522.181 829.219C338.17 895.057 154.16 960.896 62.1542 993.815L-29.8511 1026.73L-241.553 435.055Z" fill="#0B5C6A"/>
</svg>
