<svg width="1443" height="378" viewBox="0 0 1443 378" fill="none" xmlns="http://www.w3.org/2000/svg">
<path fill-rule="evenodd" clip-rule="evenodd" d="M-1424.92 345.882L-1305.27 337.957C-1185.62 331.032 -946.331 317.182 -707.055 331.322C-467.779 346.462 -228.52 389.592 10.7738 374.742C250.067 360.892 489.396 289.061 728.689 275.211C967.983 260.361 1207.24 303.491 1326.87 325.556L1446.5 347.621L1446.71 1.73939L1327.07 1.66691C1207.42 1.59444 968.14 1.44949 728.855 1.30454C489.57 1.15959 250.285 1.01464 11.0003 0.869693C-228.285 0.724744 -467.57 0.579795 -706.854 0.434847C-946.139 0.289898 -1185.42 0.144949 -1305.07 0.0724744L-1424.71 0L-1424.92 345.882Z" fill="#0B5C6A"/>
</svg>
