<svg width="1440" height="1010" viewBox="0 0 1440 1010" fill="none" xmlns="http://www.w3.org/2000/svg">
<path fill-rule="evenodd" clip-rule="evenodd" d="M-299.393 557.064L-183.971 575.369C-68.5493 593.673 162.294 630.281 371.531 606.504C580.769 582.726 768.4 498.563 956.032 414.4C1143.66 330.237 1331.29 246.074 1524.33 177.007C1717.36 107.94 1915.8 53.9698 2015.01 26.9847L2114.23 -0.00054642L2179.05 181.157L2082.53 215.69C1986.01 250.224 1792.98 319.29 1599.95 388.357C1406.92 457.424 1213.88 526.491 1020.85 595.557C827.817 664.624 634.784 733.691 441.751 802.758C248.718 871.824 55.6847 940.891 -40.8318 975.425L-137.348 1009.96L-299.393 557.064Z" fill="white"/>
</svg>
