<svg width="1440" height="541" viewBox="0 0 1440 541" fill="none" xmlns="http://www.w3.org/2000/svg">
<path fill-rule="evenodd" clip-rule="evenodd" d="M-443.652 0L-361.745 62.3528C-279.838 124.706 -116.023 249.411 48.1044 303.272C212.232 357.132 376.672 340.147 541.113 323.161C705.554 306.176 869.994 289.191 1034.36 289.917C1198.72 290.643 1363 309.081 1445.14 318.299L1527.29 327.518L1526.35 540.054L1444.17 539.691C1361.99 539.328 1197.62 538.602 1033.26 537.876C868.899 537.15 704.536 536.424 540.174 535.698C375.812 534.972 211.449 534.245 47.0872 533.519C-117.275 532.793 -281.637 532.067 -363.819 531.704L-446 531.341L-443.652 0Z" fill="white"/>
</svg>
