<svg width="1440" height="982" viewBox="0 0 1440 982" fill="none" xmlns="http://www.w3.org/2000/svg">
<path fill-rule="evenodd" clip-rule="evenodd" d="M-252.108 25.7509L-158.554 12.1293C-65.5084 0.231688 121.091 -25.2875 271.568 71.5948C421.537 170.201 534.875 392.933 688.405 479.471C842.444 564.286 1036.17 514.631 1204.96 549.451C1373.24 585.995 1516.09 708.736 1587.26 770.969L1658.43 833.202L1614.67 981.463L1532.31 957.157C1449.95 932.852 1285.23 884.24 1120.5 835.629C955.782 787.018 791.059 738.406 626.336 689.795C461.614 641.184 296.891 592.572 132.168 543.961C-32.5543 495.35 -197.277 446.739 -279.638 422.433L-362 398.127L-252.108 25.7509Z" fill="white"/>
</svg>
